<svg width="180" height="180" viewBox="0 0 180 180" fill="none" xmlns="http://www.w3.org/2000/svg">
<path d="M29.92 102.24C27.68 102.24 25.6667 101.827 23.88 101C22.0933 100.173 20.6667 98.96 19.6 97.36C18.56 95.7333 18.04 93.7733 18.04 91.48C18.04 89.88 18.32 88.1467 18.88 86.28C20.1067 82.28 21.96 79.4 24.44 77.64C26.92 75.8533 29.5733 74.96 32.4 74.96C33.92 74.96 35.2667 75.1867 36.44 75.64C37.6133 76.0933 38.6933 76.7467 39.68 77.6L40.76 76.76C41.48 76.2 42.08 75.8133 42.56 75.6C43.0667 75.3867 43.6267 75.28 44.24 75.28C44.9067 75.28 45.44 75.4267 45.84 75.72C46.24 76.0133 46.44 76.44 46.44 77C46.44 77.2933 46.3867 77.5867 46.28 77.88L44.04 84.12C43.8 84.84 43.5067 85.3467 43.16 85.64C42.84 85.9333 42.3467 86.08 41.68 86.08C40.9867 86.08 40.4133 85.84 39.96 85.36C39.5333 84.8533 39.04 84 38.48 82.8C37.84 81.5467 37.32 80.72 36.92 80.32C36.52 79.92 35.9333 79.72 35.16 79.72C34.0667 79.72 33.0133 80.4 32 81.76C30.9867 83.0933 30.0667 85.1067 29.24 87.8C28.5467 90.0667 28.2 91.96 28.2 93.48C28.2 94.8133 28.4533 95.8133 28.96 96.48C29.4667 97.12 30.1467 97.44 31 97.44C32.2533 97.44 33.28 97.16 34.08 96.6C34.9067 96.04 35.7467 95.28 36.6 94.32C37.1333 93.7333 37.56 93.3067 37.88 93.04C38.2267 92.7467 38.5867 92.6 38.96 92.6C39.44 92.6 39.9467 92.84 40.48 93.32C41.0133 93.8 41.2667 94.28 41.24 94.76C41.2667 95.3467 40.7867 96.2533 39.8 97.48C38.84 98.7067 37.4933 99.8133 35.76 100.8C34.0533 101.76 32.1067 102.24 29.92 102.24ZM63.3353 80.84C64.8286 80.84 66.0153 81.2933 66.8953 82.2C67.802 83.1067 68.2553 84.2267 68.2553 85.56C68.2553 86.0667 68.202 86.5333 68.0953 86.96C67.8286 88.0533 67.322 88.8933 66.5753 89.48C65.8286 90.0667 64.9353 90.36 63.8953 90.36C62.882 90.36 62.1086 90.12 61.5753 89.64C61.0686 89.16 60.6153 88.52 60.2153 87.72C60.002 87.2667 59.802 86.9333 59.6153 86.72C59.4286 86.5067 59.2153 86.4 58.9753 86.4C58.7086 86.4 58.4686 86.5067 58.2553 86.72C58.0686 86.9333 57.8953 87.3067 57.7353 87.84L54.6553 97.84C54.602 97.9733 54.5753 98.1733 54.5753 98.44C54.5753 98.7867 54.6686 99.08 54.8553 99.32C55.0686 99.5333 55.3486 99.7467 55.6953 99.96C56.0153 100.173 56.2286 100.347 56.3353 100.48C56.442 100.613 56.482 100.787 56.4553 101C56.402 101.347 56.202 101.6 55.8553 101.76C55.5353 101.92 54.9753 102 54.1753 102H43.9353C43.242 102 42.7486 101.893 42.4553 101.68C42.1353 101.44 42.0153 101.133 42.0953 100.76C42.202 100.44 42.482 100.16 42.9353 99.92C43.3353 99.7067 43.6686 99.4533 43.9353 99.16C44.202 98.8667 44.4286 98.4 44.6153 97.76L48.1753 86.2C48.2286 86.0667 48.2553 85.88 48.2553 85.64C48.2553 85.3467 48.1886 85.12 48.0553 84.96C47.9486 84.8 47.762 84.6 47.4953 84.36C47.2286 84.1467 47.042 83.96 46.9353 83.8C46.8286 83.64 46.8153 83.4267 46.8953 83.16C47.0553 82.5467 47.8953 82.0133 49.4153 81.56C50.9353 81.08 52.522 80.84 54.1753 80.84C55.2686 80.84 56.1753 81.0933 56.8953 81.6C57.6153 82.08 58.082 82.7733 58.2953 83.68C59.5753 81.7867 61.2553 80.84 63.3353 80.84ZM80.4194 80.64C83.806 80.64 86.2594 81.1867 87.7794 82.28C89.2994 83.3467 90.0594 84.72 90.0594 86.4C90.0594 86.9067 90.006 87.3733 89.8994 87.8C89.4994 89.56 88.3794 90.8267 86.5394 91.6C84.726 92.3467 82.5794 92.72 80.0994 92.72C78.846 92.72 77.6727 92.64 76.5794 92.48C76.5527 93.8667 76.926 94.84 77.6994 95.4C78.4727 95.96 79.5527 96.24 80.9394 96.24C81.5794 96.24 82.1927 96.1733 82.7794 96.04C83.366 95.88 84.1127 95.6533 85.0194 95.36C85.766 95.0933 86.2727 94.96 86.5394 94.96C86.8327 94.96 86.9794 95.1333 86.9794 95.48C87.006 96.4133 86.6594 97.4 85.9394 98.44C85.2194 99.4533 84.1527 100.32 82.7394 101.04C81.326 101.76 79.6194 102.12 77.6194 102.12C74.6594 102.12 72.2327 101.373 70.3394 99.88C68.446 98.3867 67.4994 96.2133 67.4994 93.36C67.4994 92.56 67.606 91.6267 67.8194 90.56C68.486 87.28 69.9394 84.8133 72.1794 83.16C74.446 81.48 77.1927 80.64 80.4194 80.64ZM76.8594 90.08C76.966 90.1067 77.1127 90.12 77.2994 90.12C78.4194 90.12 79.2727 89.6 79.8594 88.56C80.446 87.52 80.726 86.36 80.6994 85.08C80.6727 84.3333 80.4594 83.96 80.0594 83.96C79.766 83.96 79.4194 84.2 79.0194 84.68C78.6194 85.1333 78.2194 85.8267 77.8194 86.76C77.446 87.6933 77.126 88.8 76.8594 90.08ZM111.602 96.24C111.549 96.4533 111.522 96.6 111.522 96.68C111.522 96.8667 111.576 97.0133 111.682 97.12C111.789 97.2267 111.922 97.28 112.082 97.28C112.402 97.28 112.669 97.1467 112.882 96.88C113.122 96.5867 113.282 96.44 113.362 96.44C113.496 96.44 113.602 96.5333 113.682 96.72C113.762 96.9067 113.802 97.12 113.802 97.36C113.829 98.08 113.549 98.8133 112.962 99.56C112.402 100.307 111.642 100.92 110.682 101.4C109.722 101.88 108.682 102.12 107.562 102.12C106.229 102.12 105.069 101.867 104.082 101.36C103.096 100.853 102.416 100.187 102.042 99.36C101.322 100.293 100.496 100.987 99.5622 101.44C98.6289 101.893 97.6422 102.12 96.6022 102.12C95.3755 102.12 94.2289 101.813 93.1622 101.2C92.1222 100.587 91.2822 99.72 90.6422 98.6C90.0289 97.4533 89.7222 96.16 89.7222 94.72C89.7222 92.2933 90.1755 90.0133 91.0822 87.88C92.0155 85.72 93.3089 83.9867 94.9622 82.68C96.6155 81.3467 98.4955 80.68 100.602 80.68C101.749 80.68 102.722 80.8133 103.522 81.08C104.349 81.3467 105.096 81.7467 105.762 82.28L107.122 77.8C107.202 77.56 107.242 77.36 107.242 77.2C107.242 76.9067 107.162 76.6667 107.002 76.48C106.869 76.2933 106.682 76.1067 106.442 75.92C106.176 75.7067 105.976 75.52 105.842 75.36C105.736 75.2 105.722 74.9867 105.802 74.72C105.962 74.1067 106.802 73.5733 108.322 73.12C109.842 72.6667 111.429 72.44 113.082 72.44C114.629 72.44 115.762 72.7333 116.482 73.32C117.229 73.9067 117.602 74.7067 117.602 75.72C117.602 76.3067 117.509 76.88 117.322 77.44L111.602 96.24ZM104.922 85C104.496 84.6267 104.029 84.44 103.522 84.44C102.749 84.44 101.989 85.0133 101.242 86.16C100.496 87.3067 99.8955 88.6933 99.4422 90.32C98.9889 91.9467 98.7755 93.4133 98.8022 94.72C98.8022 96.1867 99.2822 96.92 100.242 96.92C100.589 96.92 100.882 96.7867 101.122 96.52C101.362 96.2267 101.589 95.76 101.802 95.12L104.922 85ZM134.61 96.24C134.557 96.4533 134.53 96.6 134.53 96.68C134.53 96.8667 134.583 97.0133 134.69 97.12C134.797 97.2267 134.93 97.28 135.09 97.28C135.41 97.28 135.677 97.1467 135.89 96.88C136.13 96.5867 136.29 96.44 136.37 96.44C136.503 96.44 136.61 96.5333 136.69 96.72C136.77 96.9067 136.81 97.12 136.81 97.36C136.837 98.08 136.557 98.8133 135.97 99.56C135.41 100.307 134.65 100.92 133.69 101.4C132.73 101.88 131.69 102.12 130.57 102.12C129.237 102.12 128.077 101.867 127.09 101.36C126.103 100.853 125.423 100.187 125.05 99.36C124.33 100.293 123.503 100.987 122.57 101.44C121.637 101.893 120.65 102.12 119.61 102.12C118.383 102.12 117.237 101.813 116.17 101.2C115.13 100.587 114.29 99.72 113.65 98.6C113.037 97.4533 112.73 96.16 112.73 94.72C112.73 92.2933 113.183 90.0133 114.09 87.88C115.023 85.72 116.317 83.9867 117.97 82.68C119.623 81.3467 121.503 80.68 123.61 80.68C124.757 80.68 125.73 80.8133 126.53 81.08C127.357 81.3467 128.103 81.7467 128.77 82.28L130.13 77.8C130.21 77.56 130.25 77.36 130.25 77.2C130.25 76.9067 130.17 76.6667 130.01 76.48C129.877 76.2933 129.69 76.1067 129.45 75.92C129.183 75.7067 128.983 75.52 128.85 75.36C128.743 75.2 128.73 74.9867 128.81 74.72C128.97 74.1067 129.81 73.5733 131.33 73.12C132.85 72.6667 134.437 72.44 136.09 72.44C137.637 72.44 138.77 72.7333 139.49 73.32C140.237 73.9067 140.61 74.7067 140.61 75.72C140.61 76.3067 140.517 76.88 140.33 77.44L134.61 96.24ZM127.93 85C127.503 84.6267 127.037 84.44 126.53 84.44C125.757 84.44 124.997 85.0133 124.25 86.16C123.503 87.3067 122.903 88.6933 122.45 90.32C121.997 91.9467 121.783 93.4133 121.81 94.72C121.81 96.1867 122.29 96.92 123.25 96.92C123.597 96.92 123.89 96.7867 124.13 96.52C124.37 96.2267 124.597 95.76 124.81 95.12L127.93 85ZM159.661 80.84C160.834 80.84 161.768 81.32 162.461 82.28C163.181 83.2133 163.541 84.4933 163.541 86.12C163.541 87.5333 163.288 89.0533 162.781 90.68C161.794 93.96 160.208 97.0533 158.021 99.96C155.861 102.867 153.368 105.2 150.541 106.96C147.741 108.72 144.941 109.6 142.141 109.6C140.754 109.6 139.554 109.36 138.541 108.88C137.554 108.4 136.808 107.76 136.301 106.96C135.768 106.16 135.501 105.307 135.501 104.4C135.501 104 135.568 103.56 135.701 103.08C135.941 102.333 136.341 101.76 136.901 101.36C137.461 100.96 138.128 100.76 138.901 100.76C140.128 100.76 141.128 101.173 141.901 102C142.701 102.853 143.208 104.013 143.421 105.48C145.128 105.4 146.701 104.667 148.141 103.28C146.781 103.04 145.768 102.587 145.101 101.92C144.461 101.227 144.021 100.16 143.781 98.72L142.181 88.92C142.101 88.4133 141.981 88.0667 141.821 87.88C141.688 87.6667 141.501 87.56 141.261 87.56C141.074 87.56 140.848 87.6533 140.581 87.84C140.341 88.0267 140.168 88.12 140.061 88.12C139.848 88.12 139.741 87.8933 139.741 87.44C139.741 87.0667 139.808 86.6667 139.941 86.24C140.421 84.72 141.314 83.44 142.621 82.4C143.928 81.3333 145.448 80.8 147.181 80.8C148.888 80.8 150.141 81.3067 150.941 82.32C151.768 83.3333 152.301 84.8933 152.541 87L153.741 95.8C153.821 96.4667 154.061 96.8 154.461 96.8C154.941 96.8 155.501 96.3733 156.141 95.52C156.781 94.64 157.408 93.4 158.021 91.8C157.221 91.08 156.608 90.2533 156.181 89.32C155.754 88.3867 155.541 87.3867 155.541 86.32C155.541 85.4933 155.648 84.7467 155.861 84.08C156.181 83.0133 156.674 82.2133 157.341 81.68C158.034 81.12 158.808 80.84 159.661 80.84Z" fill="#8C52FF"/>
</svg>
